<svg version="1.1" xmlns="http://www.w3.org/2000/svg" viewBox="0 0 1363.5703125 1080.93359375" width="1363.5703125" height="1080.93359375">
  <!-- svg-source:excalidraw -->
  
  <defs>
    <style>
      @font-face {
        font-family: "Virgil";
        src: url("https://excalidraw.com/Virgil.woff2");
      }
      @font-face {
        font-family: "Cascadia";
        src: url("https://excalidraw.com/Cascadia.woff2");
      }
    </style>
  </defs>
  <rect x="0" y="0" width="1363.5703125" height="1080.93359375" fill="#ffffff"></rect><g stroke-linecap="round" transform="translate(10 279.73046874999994) rotate(0 94.611328125 39.32226562500003)"><path d="M-0.36 -0.53 C61.4 3.3, 119.3 1.23, 188.11 1.75 M0.81 -0.2 C43.79 0.38, 88.71 0.4, 188.67 0.07 M191.11 1.88 C187.21 24.3, 188.79 50.13, 190.7 80.64 M188.42 0.9 C188.26 19.74, 189.18 40.38, 189.9 79.41 M188.06 79.52 C132.66 79.42, 71.76 77.53, -1.22 78.38 M188.85 77.71 C129.57 80.94, 69.38 80.8, 0.6 79.42 M-0.98 77.96 C-1.2 54.44, 2.18 28.64, -1.9 0.09 M0.01 78.31 C-0.09 60.11, -0.31 40.73, 0.09 -0.5" stroke="#000000" stroke-width="1" fill="none"></path></g><g transform="translate(72.36328125 309.43359375) rotate(0 18 12.5)"><text x="0" y="18" font-family="Virgil, Segoe UI Emoji" font-size="20px" fill="#000000" text-anchor="start" style="white-space: pre;" direction="ltr">Link</text></g><g stroke-linecap="round" transform="translate(116.39453125 397.234375) rotate(0 94.5 28.248046875)"><path d="M93.68 1 C124.45 7.35, 151.42 15.59, 190.21 28.71 M94.64 0.97 C131.03 9.66, 168.39 22.21, 188.28 29.89 M189.99 28.1 C158.68 37.8, 132.97 47.39, 94.88 55.62 M189.06 29.99 C151.26 39.12, 114.87 50.07, 95.63 56.39 M96.62 55.63 C62.22 48.13, 26.95 35.88, -1.69 29.06 M95.63 56.44 C60.87 47.99, 27.37 38.14, -0.25 29.06 M-1.26 30.45 C26.1 22.62, 53.16 10.61, 95.7 1.89 M0.65 28.29 C33.81 19.51, 66.84 7.9, 94.27 0.48" stroke="#000000" stroke-width="1" fill="none"></path></g><g transform="translate(121.39453125 412.982421875) rotate(0 89.5 12.5)"><text x="89.5" y="18" font-family="Virgil, Segoe UI Emoji" font-size="20px" fill="#000000" text-anchor="middle" style="white-space: pre;" direction="ltr">resolve</text></g><g stroke-linecap="round" transform="translate(114.6640625 464.806640625) rotate(0 94.5 28.248046875)"><path d="M94.28 0.32 C127.93 9.58, 159.73 21.92, 187.6 29.14 M95.46 0.21 C118.8 7.11, 142.15 12.69, 188.17 29.57 M190.6 30.19 C161.94 35.39, 134.69 45.6, 95.13 55.66 M189.91 29.51 C152.06 39.52, 114.62 50.86, 94.78 56.5 M95.27 56.9 C58.77 44.75, 21.06 36.44, 0.32 29.06 M94.59 56.16 C61.02 45.6, 27.75 36.08, -0.5 29.39 M0.14 28.71 C35.51 18.75, 75.78 5.87, 96.93 0.57 M0.45 29.7 C26.14 22.7, 52.1 14.93, 94.51 -0.93" stroke="#000000" stroke-width="1" fill="none"></path></g><g transform="translate(119.6640625 480.5546875) rotate(0 89.5 12.5)"><text x="89.5" y="18" font-family="Virgil, Segoe UI Emoji" font-size="20px" fill="#000000" text-anchor="middle" style="white-space: pre;" direction="ltr">validate</text></g><g stroke-linecap="round"><g transform="translate(370.67578125 192.4921875) rotate(0 3.693812850224788 275.0094682006212)"><path d="M-0.18 0.77 C1.53 92.31, 7.57 458.37, 9.12 549.89 M-1.73 0.12 C-0.01 91.28, 6.85 456.9, 8.61 548.21" stroke="#000000" stroke-width="1" fill="none"></path></g></g><g stroke-linecap="round" transform="translate(21.193359375 577.884765625) rotate(0 94.611328125 39.322265625)"><path d="M0.18 0.23 C50.22 -0.73, 102.18 -0.97, 187.69 -1.09 M-0.72 -0.01 C65.32 2.12, 133.03 0.67, 189.34 0.84 M188.4 -0.13 C188.99 22.1, 189.62 40.96, 187.29 80.5 M188.72 0.71 C189.04 25.05, 190.5 48.4, 189.82 78.69 M187.64 80.01 C127.45 77.48, 64.28 78.95, 0.68 79.92 M189.61 78.13 C143.75 78.4, 95.76 77.58, 0.51 77.91 M-1.45 78.37 C-0.6 62.54, -1.23 44.51, 1.46 1.59 M0.38 78.51 C1.21 57.95, 0.22 38.02, 0.18 0.65" stroke="#000000" stroke-width="1" fill="none"></path></g><g transform="translate(26.193359375 604.70703125) rotate(0 89.5 12.5)"><text x="89.5" y="18" font-family="Virgil, Segoe UI Emoji" font-size="20px" fill="#000000" text-anchor="middle" style="white-space: pre;" direction="ltr">Page</text></g><g stroke-linecap="round" transform="translate(424.15625 199.07421875) rotate(0 155.08203125 59.384765625)"><path d="M-1.14 0.12 C122.88 -0.16, 245.66 1.72, 309.32 -0.57 M-0.7 -0.42 C117.12 -1.06, 233.97 -1.16, 309.51 0.17 M309.41 -1.06 C308.46 40.95, 311.03 80.05, 308.46 119.78 M311.1 -0.8 C309.35 46.77, 309.07 91.49, 310.89 118.18 M311.12 118.62 C220.78 118.87, 132.58 117.94, 1.23 118.54 M310.4 118.86 C226.76 120.58, 142.7 121.23, 0.22 119.4 M1.46 119.46 C-1.22 80.01, -1.36 42.94, -0.35 -0.63 M-0.27 117.81 C-0.34 84.21, -1.01 49.97, 0.65 -0.23" stroke="#000000" stroke-width="1" fill="none"></path></g><g transform="translate(530.0234375 248.53125) rotate(0 37.5 12.5)"><text x="0" y="18" font-family="Virgil, Segoe UI Emoji" font-size="20px" fill="#000000" text-anchor="start" style="white-space: pre;" direction="ltr">Exporer</text></g><g stroke-linecap="round" transform="translate(422.46484375 352.70703125) rotate(0 164.755859375 198.568359375)"><path d="M-0.57 1.29 C77.43 1.43, 152.71 0.8, 329.05 0.12 M-0.11 -0.24 C108.69 0.59, 216.63 0.8, 330.18 0.03 M329.02 -1.14 C327.92 102.65, 327.94 205.53, 330.36 397.64 M330.02 -0.44 C330.88 122.54, 331 244.67, 329.25 397.65 M330.45 398.01 C239.08 397.98, 150.4 398.04, -1.28 397.39 M329.69 396.84 C238.28 399.52, 146.5 398.65, 0.43 397.3 M0.58 397.91 C0.36 312.16, 0.35 225.44, -0.25 0.11 M-0.02 396.97 C-1.97 305.05, -2.51 212.82, 0.01 -0.39" stroke="#000000" stroke-width="1" fill="none"></path></g><g stroke-linecap="round"><g transform="translate(850.6841738724911 356.23070233633854) rotate(0 -48.03053286196109 9.642261954702974)"><path d="M0.33 0.88 C-15.58 4.18, -79.59 16, -95.35 18.99 M-0.95 0.29 C-17.05 3.35, -80.81 14.61, -96.39 17.39" stroke="#000000" stroke-width="1" fill="none"></path></g><g transform="translate(850.6841738724911 356.23070233633854) rotate(0 -48.03053286196109 9.642261954702974)"><path d="M-68.97 2.04 C-77 8.7, -85.36 12.58, -94.48 17.61 M-69.8 2.5 C-77.71 6.67, -84.68 11.25, -96.18 17.52" stroke="#000000" stroke-width="1" fill="none"></path></g><g transform="translate(850.6841738724911 356.23070233633854) rotate(0 -48.03053286196109 9.642261954702974)"><path d="M-65.38 22.25 C-74.39 22.61, -83.88 20.18, -94.48 17.61 M-66.22 22.7 C-75.25 21.17, -83.23 20.08, -96.18 17.52" stroke="#000000" stroke-width="1" fill="none"></path></g></g><g transform="translate(528.1015625 650.01171875) rotate(0 45 12.5)"><text x="0" y="18" font-family="Virgil, Segoe UI Emoji" font-size="20px" fill="#000000" text-anchor="start" style="white-space: pre;" direction="ltr">Validator</text></g><g stroke-linecap="round" transform="translate(863.75 250.30859375) rotate(0 100.583984375 66.78125)"><path d="M116.63 0.46 C129.75 0.92, 144.05 6.33, 155.53 11.27 C167.02 16.21, 178.31 22.71, 185.55 30.11 C192.79 37.51, 196.97 46.62, 198.99 55.66 C201.01 64.7, 201.12 75.42, 197.66 84.33 C194.2 93.24, 186.66 102.09, 178.24 109.09 C169.83 116.1, 159.38 122.41, 147.17 126.36 C134.97 130.32, 118.81 132.22, 105.01 132.82 C91.21 133.42, 76.93 133.04, 64.39 129.98 C51.85 126.92, 39.31 121.14, 29.77 114.47 C20.23 107.81, 12.11 98.59, 7.13 89.98 C2.14 81.38, -0.8 71.61, -0.16 62.85 C0.47 54.09, 4.6 45.35, 10.95 37.44 C17.29 29.53, 27.43 21.15, 37.91 15.39 C48.39 9.63, 59.74 5.32, 73.84 2.86 C87.93 0.4, 113.64 0.55, 122.49 0.62 C131.34 0.69, 127.28 2.17, 126.93 3.28 M105.39 1.3 C118.07 0.75, 132.22 3.38, 144.11 7.12 C156 10.87, 167.79 16.67, 176.74 23.78 C185.7 30.88, 193.76 41.07, 197.84 49.75 C201.93 58.42, 203.1 67.07, 201.27 75.82 C199.45 84.57, 194.14 94.39, 186.87 102.23 C179.6 110.07, 168.89 117.65, 157.64 122.86 C146.4 128.07, 132.85 132.18, 119.42 133.49 C105.99 134.8, 90.4 133.01, 77.08 130.73 C63.76 128.44, 50.28 125.26, 39.49 119.77 C28.7 114.29, 18.91 106.1, 12.35 97.79 C5.8 89.48, 1.31 78.87, 0.17 69.93 C-0.97 60.98, 0.74 52.49, 5.52 44.1 C10.3 35.71, 19.31 26.01, 28.84 19.61 C38.36 13.21, 50.07 8.75, 62.66 5.7 C75.25 2.65, 97.37 1.83, 104.4 1.3 C111.42 0.77, 104.76 1.44, 104.8 2.52" stroke="#000000" stroke-width="1" fill="none"></path></g><g transform="translate(868.75 279.58984375) rotate(0 95.5 37.5)"><text x="95.5" y="18" font-family="Virgil, Segoe UI Emoji" font-size="20px" fill="#000000" text-anchor="middle" style="white-space: pre;" direction="ltr">Q of unvalidated </text><text x="95.5" y="43" font-family="Virgil, Segoe UI Emoji" font-size="20px" fill="#000000" text-anchor="middle" style="white-space: pre;" direction="ltr">links</text><text x="95.5" y="68" font-family="Virgil, Segoe UI Emoji" font-size="20px" fill="#000000" text-anchor="middle" style="white-space: pre;" direction="ltr">Q_unvalidated</text></g><g stroke-linecap="round"><g transform="translate(755.7265625 245.41796875) rotate(0 69.37310833331037 7.7508533238595305)"><path d="M-0.74 1.13 C22.63 3.25, 116.2 11.28, 139.48 13.33 M1.08 0.67 C24.37 2.95, 115.82 12.48, 138.65 14.83" stroke="#000000" stroke-width="1" fill="none"></path></g><g transform="translate(755.7265625 245.41796875) rotate(0 69.37310833331037 7.7508533238595305)"><path d="M111.43 22.52 C116.34 20.12, 123.47 17.88, 136.95 13.17 M109.97 22.05 C119.86 19.77, 130.75 16.81, 139.3 15.38" stroke="#000000" stroke-width="1" fill="none"></path></g><g transform="translate(755.7265625 245.41796875) rotate(0 69.37310833331037 7.7508533238595305)"><path d="M113.55 2.1 C118.05 4.57, 124.67 7.2, 136.95 13.17 M112.08 1.64 C121.14 6.82, 131.26 11.33, 139.3 15.38" stroke="#000000" stroke-width="1" fill="none"></path></g></g><g stroke-linecap="round" transform="translate(1040.3046875 416.1640625) rotate(0 156.6328125 74.83203125)"><path d="M-1.28 -1.14 C64.26 -1.38, 131.34 0.29, 312.68 -0.42 M-0.46 0.58 C109.7 0, 220.25 0.85, 312.59 -0.01 M312.38 0.85 C312.43 44.39, 315.42 85.57, 311.58 147.94 M313.9 -0.75 C314.05 55.42, 312.65 111.88, 314.15 149.41 M312.36 148.71 C240.24 149.32, 166.2 148.75, -0.1 149.31 M312.99 150.03 C216.07 151.15, 120.03 150.96, -0.23 150.07 M1.99 149.21 C-3.03 101.81, -1.17 52.95, -1.32 -0.03 M-0.3 148.98 C0.88 104.98, 0.37 58.06, -0.76 0.76" stroke="#000000" stroke-width="1" fill="none"></path></g><g transform="translate(1146.171875 465.8671875) rotate(0 45 12.5)"><text x="0" y="18" font-family="Virgil, Segoe UI Emoji" font-size="20px" fill="#000000" text-anchor="start" style="white-space: pre;" direction="ltr">Validator</text></g><g stroke-linecap="round"><g transform="translate(1077.9351968698181 338.36487442039373) rotate(0 41.59083472736347 28.842454223416496)"><path d="M0.71 0.34 C14.63 9.93, 69.91 47.43, 83.55 57.11 M-0.37 -0.53 C13.44 9.23, 69.29 48.74, 82.95 58.21" stroke="#000000" stroke-width="1" fill="none"></path></g><g transform="translate(1077.9351968698181 338.36487442039373) rotate(0 41.59083472736347 28.842454223416496)"><path d="M54.55 51.53 C61.46 52.08, 72.52 55.53, 84.1 59.69 M54.46 49.91 C59.76 51.69, 66.96 52.74, 82.42 58.71" stroke="#000000" stroke-width="1" fill="none"></path></g><g transform="translate(1077.9351968698181 338.36487442039373) rotate(0 41.59083472736347 28.842454223416496)"><path d="M66.33 34.73 C69.57 40.5, 77.03 49.09, 84.1 59.69 M66.25 33.11 C69.11 38.49, 73.82 43.08, 82.42 58.71" stroke="#000000" stroke-width="1" fill="none"></path></g></g><g transform="translate(463.29296875 727.296875) rotate(0 107 12.5)"><text x="0" y="18" font-family="Virgil, Segoe UI Emoji" font-size="20px" fill="#000000" text-anchor="start" style="white-space: pre;" direction="ltr">Thread. UrlRequester</text></g><g stroke-linecap="round"><g transform="translate(754.8754239542131 506.17217236114794) rotate(0 0.12595656403789235 -0.04144432916632468)"><path d="M-0.8 0.82 C-0.81 1.04, -1.16 0.79, -1.04 0.73 M0.98 0.2 C1.42 0.13, 1.4 -0.7, 1.08 -0.99" stroke="#000000" stroke-width="1" fill="none"></path></g><g transform="translate(754.8754239542131 506.17217236114794) rotate(0 0.12595656403789235 -0.04144432916632468)"><path d="M1.12 -0.96 C1.11 -0.96, 1.1 -0.97, 1.08 -0.99 M1.12 -0.96 C1.11 -0.96, 1.1 -0.97, 1.08 -0.99" stroke="#000000" stroke-width="1" fill="none"></path></g><g transform="translate(754.8754239542131 506.17217236114794) rotate(0 0.12595656403789235 -0.04144432916632468)"><path d="M1.09 -0.95 C1.09 -0.95, 1.09 -0.96, 1.08 -0.99 M1.09 -0.94 C1.09 -0.95, 1.08 -0.96, 1.08 -0.99" stroke="#000000" stroke-width="1" fill="none"></path></g></g><g transform="translate(511.00390625 443.91015625) rotate(0 73.5 12.5)"><text x="0" y="18" font-family="Virgil, Segoe UI Emoji" font-size="20px" fill="#000000" text-anchor="start" style="white-space: pre;" direction="ltr">Linnk Get next</text></g><g transform="translate(493.94921875 770.93359375) rotate(0 234.5 150)"><text x="0" y="18" font-family="Virgil, Segoe UI Emoji" font-size="20px" fill="#000000" text-anchor="start" style="white-space: pre;" direction="ltr">while True:</text><text x="0" y="43" font-family="Virgil, Segoe UI Emoji" font-size="20px" fill="#000000" text-anchor="start" style="white-space: pre;" direction="ltr">   item = Q_unvalidated.get() #Linnk Get next</text><text x="0" y="68" font-family="Virgil, Segoe UI Emoji" font-size="20px" fill="#000000" text-anchor="start" style="white-space: pre;" direction="ltr">   if item.get("cmd", None) == "_exit__"</text><text x="0" y="93" font-family="Virgil, Segoe UI Emoji" font-size="20px" fill="#000000" text-anchor="start" style="white-space: pre;" direction="ltr">     break</text><text x="0" y="118" font-family="Virgil, Segoe UI Emoji" font-size="20px" fill="#000000" text-anchor="start" style="white-space: pre;" direction="ltr">   is_valid = self.validate(item["url"])</text><text x="0" y="143" font-family="Virgil, Segoe UI Emoji" font-size="20px" fill="#000000" text-anchor="start" style="white-space: pre;" direction="ltr"># in valideat item.valid = is_valid</text><text x="0" y="168" font-family="Virgil, Segoe UI Emoji" font-size="20px" fill="#000000" text-anchor="start" style="white-space: pre;" direction="ltr">   if is_valid:</text><text x="0" y="193" font-family="Virgil, Segoe UI Emoji" font-size="20px" fill="#000000" text-anchor="start" style="white-space: pre;" direction="ltr">       Q_valid.add(item)</text><text x="0" y="218" font-family="Virgil, Segoe UI Emoji" font-size="20px" fill="#000000" text-anchor="start" style="white-space: pre;" direction="ltr">   else:</text><text x="0" y="243" font-family="Virgil, Segoe UI Emoji" font-size="20px" fill="#000000" text-anchor="start" style="white-space: pre;" direction="ltr">       Q_invalid.add(item)</text><text x="0" y="268" font-family="Virgil, Segoe UI Emoji" font-size="20px" fill="#000000" text-anchor="start" style="white-space: pre;" direction="ltr"></text><text x="0" y="293" font-family="Virgil, Segoe UI Emoji" font-size="20px" fill="#000000" text-anchor="start" style="white-space: pre;" direction="ltr">  </text></g><g stroke-linecap="round" transform="translate(606.439453125 10) rotate(0 172 70)"><path d="M164.03 0.67 C181.7 -0.8, 202.04 1.47, 219.97 3.62 C237.91 5.78, 256.38 9.24, 271.63 13.59 C286.88 17.93, 300.79 23.69, 311.47 29.69 C322.15 35.68, 330.34 42.56, 335.71 49.54 C341.09 56.52, 344.14 63.95, 343.74 71.55 C343.34 79.16, 340 87.89, 333.33 95.18 C326.66 102.47, 315.54 109.41, 303.71 115.29 C291.87 121.17, 278.02 126.46, 262.31 130.46 C246.59 134.46, 227.71 137.94, 209.42 139.31 C191.14 140.69, 171.34 139.61, 152.6 138.72 C133.86 137.84, 113.82 136.96, 96.99 133.99 C80.15 131.03, 64.83 126.29, 51.59 120.92 C38.36 115.56, 26.07 108.74, 17.59 101.81 C9.1 94.88, 3 86.9, 0.7 79.34 C-1.61 71.78, -0.03 63.99, 3.76 56.45 C7.54 48.91, 14.19 40.66, 23.43 34.11 C32.67 27.56, 45.02 21.83, 59.2 17.14 C73.38 12.46, 90.03 8.76, 108.52 6 C127.01 3.23, 158.98 1.37, 170.13 0.56 C181.28 -0.25, 175.37 0.13, 175.41 1.14 M187.95 1.76 C205.76 1.1, 225.41 2.33, 242.5 5.39 C259.59 8.46, 276.61 14.84, 290.49 20.13 C304.37 25.43, 317.27 30.4, 325.76 37.15 C334.26 43.91, 338.67 53.1, 341.47 60.68 C344.27 68.25, 345.79 75.18, 342.57 82.59 C339.35 90, 331.67 98.64, 322.17 105.13 C312.66 111.61, 299.56 116.42, 285.55 121.51 C271.54 126.6, 254.86 132.61, 238.08 135.65 C221.31 138.69, 203.34 139.55, 184.88 139.74 C166.43 139.94, 145.73 138.91, 127.34 136.82 C108.95 134.73, 90.15 131.2, 74.57 127.22 C58.99 123.25, 45.1 118.67, 33.85 112.98 C22.61 107.29, 12.83 100.63, 7.1 93.09 C1.38 85.56, -1.02 75.69, -0.49 67.77 C0.05 59.86, 3.76 52.46, 10.3 45.6 C16.84 38.75, 26.9 32.65, 38.74 26.66 C50.59 20.67, 65.76 13.75, 81.36 9.67 C96.96 5.59, 114.2 3.66, 132.33 2.18 C150.46 0.69, 180.83 0.67, 190.13 0.77 C199.44 0.87, 188.47 1.77, 188.18 2.76" stroke="#000000" stroke-width="1" fill="none"></path></g><g transform="translate(611.439453125 42.5) rotate(0 167 37.5)"><text x="167" y="18" font-family="Virgil, Segoe UI Emoji" font-size="20px" fill="#000000" text-anchor="middle" style="white-space: pre;" direction="ltr">Q of unvisited pages</text><text x="167" y="43" font-family="Virgil, Segoe UI Emoji" font-size="20px" fill="#000000" text-anchor="middle" style="white-space: pre;" direction="ltr"></text><text x="167" y="68" font-family="Virgil, Segoe UI Emoji" font-size="20px" fill="#000000" text-anchor="middle" style="white-space: pre;" direction="ltr">www.example.com/about#part1</text></g></svg>